<?xml version="1.0" encoding="utf-8" ?><svg xmlns="http://www.w3.org/2000/svg" xmlns:xlink="http://www.w3.org/1999/xlink" width="944" height="944" viewBox="0 0 944 944"><defs><linearGradient id="gradient_0" gradientUnits="userSpaceOnUse" x1="502.67493" y1="645.08118" x2="545.74774" y2="533.84589"><stop offset="0" stop-color="#947745"/><stop offset="1" stop-color="#D2BC81"/></linearGradient></defs><path fill="url(#gradient_0)" d="M314.579 382.661C314.968 380.575 315.603 379.262 317.433 378.082C323.249 374.331 351.54 376.075 358.764 377.923C363.016 379.01 366.677 380.556 370.142 383.272C383.108 393.435 398.633 413.978 409.572 427.165C415.618 434.453 422.43 441.716 427.712 449.569C427.768 449.653 427.807 449.747 427.855 449.836C433.845 455.527 440.225 465.529 446.708 470.486C449.011 466.384 450.329 462.779 452.371 458.931C452.655 457.877 453.33 456.752 453.846 455.747L454.54 455.711C455.279 454.369 455.809 453.334 456.451 451.943C463.324 455.28 479.213 457.603 483.601 462.819C483.82 463.079 484.064 463.318 484.3 463.562C484.835 460.851 485.203 460.153 486.54 457.76L486.896 457.112C487.744 454.538 488.079 454.487 489.494 452.23C491.695 454.758 489.806 455.062 491.141 455.296C485.287 476.224 478.075 488.317 483.136 510.348C484.508 513.284 485.335 516.135 488.287 517.331L490.281 521.609C498.557 533.304 507.003 542.498 516.53 553.122C519.431 556.357 527.743 565.204 530.06 568.592C534.199 572.668 541.781 582.143 545.808 586.911C554.682 596.309 564.18 608.669 574.477 616.342C575.825 617.459 576.366 618.379 577.99 618.285L578.083 617.603C578.46 615.853 578.589 613.352 578.605 611.518C578.822 586.778 579.905 561.574 576.925 536.978C576.42 532.816 574.178 528.521 571.759 525.195C570.12 523.813 568.458 522.459 566.776 521.131C560.906 518.59 554.395 515.899 548.617 513.158C547.024 512.402 546.712 510.659 546.4 509.045C550.95 504.743 563.281 505.997 569.613 505.995L600.854 505.998L629.076 505.919C634.934 505.898 646.867 504.946 651.348 508.348C651.638 510.104 651.765 510.329 651.079 512.018C649.307 514.141 638.026 517.01 634.952 518.676C634.987 518.657 627.868 522.071 628.326 521.945C620.072 520.813 617.068 532.363 614.779 537.689C612.919 546.066 612.808 568.861 612.862 578.234L613.032 628.23C613.049 636.301 613.397 647.785 612.924 655.662L613.248 658.594C594.097 667.298 570.921 667.775 550.407 665.528C528.414 663.119 506.695 654.893 489.601 640.857C485.963 637.87 481.289 634.401 478.374 630.686C472.52 625.401 462.49 612.35 458.786 605.168C457.876 604.162 455.791 599.886 455.078 598.529C444.073 577.554 440.718 553.55 437.483 530.395C436.369 522.42 435.641 517.404 430.346 510.953C422.663 501.591 414.626 492.477 406.724 483.296C396.273 471.156 386.312 458.498 374.697 447.444C373.831 446.627 373.497 446.447 372.717 445.416C372.651 444.32 369.329 439.48 368.441 438.243C368.084 437.746 366.823 437.896 365.997 437.869C365.787 437.807 365.084 437.369 364.862 437.239C365.271 436.081 366.55 435.811 368.014 435.037C361 434.407 361.365 443.487 362.254 448.194C361.109 461.134 362.732 475.863 362.071 488.962C358.137 475.509 360.468 464.169 359.591 450.641C359.114 444.695 361.623 426.434 355.301 423.187C355.175 422.968 353.562 417.678 353.236 416.755C349.985 407.55 346.565 403.592 339.271 397.385C339.194 398.97 339.005 399.156 340.413 400.647C342.808 403.185 348.633 408.536 349.278 411.9C348.107 413.581 348.258 412.722 348.502 414.5C347.511 414.842 347.799 414.589 347.175 415.305C341.471 403.2 333.861 398.983 323.163 391.231C318.826 388.444 315.886 387.445 314.579 382.661ZM494.235 590.17C494.316 592.928 494.625 594.432 495.556 597.071C503.651 616.136 512.907 630.494 530.341 642.901C534.317 645.732 542.303 648.612 544.528 650.182C547.618 651.021 551.018 652.027 554.133 652.612L555.163 652.227C555.401 650.892 554.905 650.596 554.167 649.071C552.189 646.681 550.164 644.33 548.092 642.02C537.665 630.272 526.506 618.749 515.792 607.242C510.506 601.564 505.427 595.463 499.505 590.488C497.921 589.158 496.646 589.074 494.662 588.954L494.235 590.17Z"/><path fill="#C5A86D" d="M314.579 382.661C314.968 380.575 315.603 379.262 317.433 378.082C323.249 374.331 351.54 376.075 358.764 377.923C363.016 379.01 366.677 380.556 370.142 383.272C383.108 393.435 398.633 413.978 409.572 427.165C415.618 434.453 422.43 441.716 427.712 449.569C427.768 449.653 427.807 449.747 427.855 449.836C433.845 455.527 440.225 465.529 446.708 470.486C449.011 466.384 450.329 462.779 452.371 458.931C452.655 457.877 453.33 456.752 453.846 455.747L454.54 455.711C455.279 454.369 455.809 453.334 456.451 451.943C463.324 455.28 479.213 457.603 483.601 462.819C483.82 463.079 484.064 463.318 484.3 463.562C484.835 460.851 485.203 460.153 486.54 457.76L486.896 457.112C487.744 454.538 488.079 454.487 489.494 452.23C491.695 454.758 489.806 455.062 491.141 455.296C485.287 476.224 478.075 488.317 483.136 510.348C484.508 513.284 485.335 516.135 488.287 517.331L490.281 521.609L489.957 522.301C493.761 529.659 501.244 535.853 505.003 543.414C505.412 544.236 507.072 545.365 507.552 546.336C508.539 549.06 509.691 554.057 507.373 556.35C505.972 556.636 506.68 556.649 505.235 555.947C503.247 560.067 507.456 567.989 498.178 568.793C502.84 571.238 505.006 575.126 507.752 579.555L507.285 579.852C505.009 578.409 505.023 576.631 503.057 575.945C502.731 578.92 504.757 576.015 502.96 579.094L503.874 579.311C504.86 579.551 505.027 579.574 505.896 580.149C503.641 579.908 504.293 579.648 502.631 580.614C501.709 582.115 501.374 582.925 500.671 584.559C498.692 583.246 494.638 578.299 492.905 576.251C489.986 572.819 487.415 569.855 484.283 566.585C480.623 563.168 474.051 555.234 470.67 551.276C463.103 542.419 455.007 533.148 447.779 524.049C446.768 522.393 444.147 519.582 442.49 518.489L441.986 518.669C440.689 518.976 440.995 518.626 440.503 519.396C438.504 513.124 431.891 506.378 427.569 501.332L407.078 477.714C395.436 464.23 383.986 450.122 371.715 437.126C370.508 435.847 369.703 435.47 368.014 435.037C361 434.407 361.365 443.487 362.254 448.194C361.109 461.134 362.732 475.863 362.071 488.962C358.137 475.509 360.468 464.169 359.591 450.641C359.114 444.695 361.623 426.434 355.301 423.187C355.175 422.968 353.562 417.678 353.236 416.755C349.985 407.55 346.565 403.592 339.271 397.385C339.194 398.97 339.005 399.156 340.413 400.647C342.808 403.185 348.633 408.536 349.278 411.9C348.107 413.581 348.258 412.722 348.502 414.5C347.511 414.842 347.799 414.589 347.175 415.305C341.471 403.2 333.861 398.983 323.163 391.231C318.826 388.444 315.886 387.445 314.579 382.661Z"/><defs><linearGradient id="gradient_1" gradientUnits="userSpaceOnUse" x1="458.70355" y1="492.56033" x2="486.3768" y2="465.20706"><stop offset="0" stop-color="#73501B"/><stop offset="1" stop-color="#A48A52"/></linearGradient></defs><path fill="url(#gradient_1)" d="M489.494 452.23C491.695 454.758 489.806 455.062 491.141 455.296C485.287 476.224 478.075 488.317 483.136 510.348C481.869 508.271 481.692 506.885 480.852 504.729L481.454 504.125L480.645 503.036C480.193 503.904 480.23 503.55 480.4 504.466L481.14 504.316C481.634 507.249 482.137 511.134 481.661 514.074C481.83 515.543 482.096 515.202 481.516 515.969C477.259 512.294 449.04 479.999 447.448 476.03L449.068 473.435C448.888 470.802 451.687 467.202 452.941 464.404L452.728 463.894L450.597 467.031L450.191 466.911C450.289 464.29 452.414 462.281 452.371 458.931C452.655 457.877 453.33 456.752 453.846 455.747L454.54 455.711C455.279 454.369 455.809 453.334 456.451 451.943C463.324 455.28 479.213 457.603 483.601 462.819C483.82 463.079 484.064 463.318 484.3 463.562C484.835 460.851 485.203 460.153 486.54 457.76L486.896 457.112C487.744 454.538 488.079 454.487 489.494 452.23Z"/><path fill="#A89367" d="M489.494 452.23C491.695 454.758 489.806 455.062 491.141 455.296C485.287 476.224 478.075 488.317 483.136 510.348C481.869 508.271 481.692 506.885 480.852 504.729L481.454 504.125L480.645 503.036C480.193 503.904 480.23 503.55 480.4 504.466L481.14 504.316C481.634 507.249 482.137 511.134 481.661 514.074C477.934 499.398 479.763 489.845 482.724 475.212C484.024 468.789 484.985 463.5 486.896 457.112C487.744 454.538 488.079 454.487 489.494 452.23Z"/><path fill="#968152" d="M314.579 382.661C317.448 382.045 315.572 381.646 317.728 379.683L318.434 380.756C326.985 381.467 357.548 381.187 362.918 383.718C368.737 386.461 383.59 402.909 388.479 408.666C390.222 410.719 391.867 412.862 393.506 414.998C390.223 412.449 387.504 408.638 384.653 405.495C381.154 401.677 377.546 397.959 373.835 394.347C372.894 394.84 371.724 395.396 370.864 395.98C368.555 396.132 365.359 395.945 363.681 397.011C362.112 399.587 362.788 401.611 361.924 404.111C361.149 406.356 359.298 406.7 359.424 409.432C361.768 412.97 363.085 414.909 363.199 419.401L362.728 420.129L362.112 419.887C362.221 408.887 345.04 391.192 333.562 389.522C333.188 389.468 332.891 389.596 332.546 389.71C333.142 391.608 342.885 398.977 346.067 402.622C349.906 407.063 352.806 412.235 354.592 417.826C355.568 421.952 357.743 424.442 359.057 428.448C361.318 435.345 360.017 442.88 359.936 450.063L359.591 450.641C359.114 444.695 361.623 426.434 355.301 423.187C355.175 422.968 353.562 417.678 353.236 416.755C349.985 407.55 346.565 403.592 339.271 397.385C339.194 398.97 339.005 399.156 340.413 400.647C342.808 403.185 348.633 408.536 349.278 411.9C348.107 413.581 348.258 412.722 348.502 414.5C347.511 414.842 347.799 414.589 347.175 415.305C341.471 403.2 333.861 398.983 323.163 391.231C318.826 388.444 315.886 387.445 314.579 382.661Z"/><defs><linearGradient id="gradient_2" gradientUnits="userSpaceOnUse" x1="338.57187" y1="395.82599" x2="334.0473" y2="402.58902"><stop offset="0" stop-color="#6A5936"/><stop offset="1" stop-color="#978974"/></linearGradient></defs><path fill="url(#gradient_2)" d="M314.579 382.661C317.448 382.045 315.572 381.646 317.728 379.683L318.434 380.756C319.07 383.485 325.224 386.01 327.759 388.024C332.398 391.297 335.024 393.931 339.271 397.385C339.194 398.97 339.005 399.156 340.413 400.647C342.808 403.185 348.633 408.536 349.278 411.9C348.107 413.581 348.258 412.722 348.502 414.5C347.511 414.842 347.799 414.589 347.175 415.305C341.471 403.2 333.861 398.983 323.163 391.231C318.826 388.444 315.886 387.445 314.579 382.661Z"/><path fill="#6A5633" d="M314.579 382.661C317.448 382.045 315.572 381.646 317.728 379.683L318.434 380.756C319.07 383.485 325.224 386.01 327.759 388.024C324.266 389.984 323.929 386.498 320.407 386.252C320.248 386.241 319.141 385.657 319.033 385.602L318.658 385.816C320.2 388.119 323.656 387.535 324.051 390.31L323.163 391.231C318.826 388.444 315.886 387.445 314.579 382.661Z"/><defs><linearGradient id="gradient_3" gradientUnits="userSpaceOnUse" x1="497.10715" y1="576.20544" x2="487.76349" y2="562.87823"><stop offset="0" stop-color="#8B7953"/><stop offset="1" stop-color="#BEA376"/></linearGradient></defs><path fill="url(#gradient_3)" d="M484.283 566.585C488.521 562.332 489.054 563.47 494.354 565.483C498.433 570.08 504.713 578.088 492.905 576.251C489.986 572.819 487.415 569.855 484.283 566.585Z"/><path fill="#968152" d="M427.855 449.836C433.845 455.527 440.225 465.529 446.708 470.486C449.011 466.384 450.329 462.779 452.371 458.931C452.414 462.281 450.289 464.29 450.191 466.911L450.597 467.031L452.728 463.894L452.941 464.404C451.687 467.202 448.888 470.802 449.068 473.435C448.603 472.219 448.861 472.61 447.894 471.747C445.599 472.329 447.358 473.686 445.142 474.494C441.755 472.863 428.954 453.844 427.855 449.836Z"/><path fill="#B0A48A" d="M494.354 565.483C491.005 560.384 488.742 558.621 484.58 554.383C483.55 553.334 481.722 549.553 480.66 548.15C479.324 546.385 476.718 544.742 476.341 542.546C477.416 542.989 478.102 544.213 478.717 545.338C482.677 552.575 494.648 562.71 498.178 568.793C502.84 571.238 505.006 575.126 507.752 579.555L507.285 579.852C505.009 578.409 505.023 576.631 503.057 575.945C502.731 578.92 504.757 576.015 502.96 579.094L503.874 579.311C504.86 579.551 505.027 579.574 505.896 580.149C503.641 579.908 504.293 579.648 502.631 580.614C501.709 582.115 501.374 582.925 500.671 584.559C498.692 583.246 494.638 578.299 492.905 576.251C504.713 578.088 498.433 570.08 494.354 565.483Z"/><path fill="#968152" d="M354.592 417.826C354.912 416.512 355.242 416.087 355.979 414.992C356.204 413.15 349.446 402.348 347.804 400.33L348.136 400.111C350.703 401.805 352.481 405.684 353.98 408.442C355.935 411.238 362.195 421.522 362.932 424.54C361.956 424.243 355.297 418.822 354.592 417.826Z"/><defs><linearGradient id="gradient_4" gradientUnits="userSpaceOnUse" x1="598.29498" y1="501.89716" x2="604.76532" y2="560.56628"><stop offset="0" stop-color="#B49E76"/><stop offset="1" stop-color="#ECD891"/></linearGradient></defs><path fill="url(#gradient_4)" d="M546.4 509.045C550.95 504.743 563.281 505.997 569.613 505.995L600.854 505.998L629.076 505.919C634.934 505.898 646.867 504.946 651.348 508.348C651.638 510.104 651.765 510.329 651.079 512.018C649.307 514.141 638.026 517.01 634.952 518.676C634.987 518.657 627.868 522.071 628.326 521.945C620.072 520.813 617.068 532.363 614.779 537.689C614.389 536.473 615.295 533.284 615.518 531.362C612.656 538.762 612.127 549.381 611.581 557.417C610.726 558.662 611.023 558.728 610.951 560.542C610.617 560.063 610.288 559.581 609.964 559.095C605.311 559.688 587.359 559.996 585.227 562.974C584.441 564.073 584.427 565.525 584.315 566.824C584.252 567.549 584.28 567.272 584.064 568.144C582.89 581.19 583.993 600.305 583.526 614.071C585.323 617.388 582.007 620.636 581.721 623.151L581.589 622.824C579.718 620.362 580.333 618.818 579.072 617.119L578.083 617.603C578.46 615.853 578.589 613.352 578.605 611.518C578.822 586.778 579.905 561.574 576.925 536.978C576.42 532.816 574.178 528.521 571.759 525.195C570.12 523.813 568.458 522.459 566.776 521.131C560.906 518.59 554.395 515.899 548.617 513.158C547.024 512.402 546.712 510.659 546.4 509.045Z"/><defs><linearGradient id="gradient_5" gradientUnits="userSpaceOnUse" x1="549.28839" y1="564.68433" x2="583.22955" y2="563.61847"><stop offset="0" stop-color="#5D4F36"/><stop offset="1" stop-color="#81704E"/></linearGradient></defs><path fill="url(#gradient_5)" d="M566.776 521.131C560.906 518.59 554.395 515.899 548.617 513.158C547.024 512.402 546.712 510.659 546.4 509.045C586.168 517.044 583.855 531.807 584.064 568.144C582.89 581.19 583.993 600.305 583.526 614.071C585.323 617.388 582.007 620.636 581.721 623.151L581.589 622.824C579.718 620.362 580.333 618.818 579.072 617.119L578.083 617.603C578.46 615.853 578.589 613.352 578.605 611.518C578.822 586.778 579.905 561.574 576.925 536.978C576.42 532.816 574.178 528.521 571.759 525.195C570.12 523.813 568.458 522.459 566.776 521.131Z"/><defs><linearGradient id="gradient_6" gradientUnits="userSpaceOnUse" x1="585.37048" y1="568.48462" x2="570.93903" y2="571.28424"><stop offset="0" stop-color="#998F72"/><stop offset="1" stop-color="#917A5C"/></linearGradient></defs><path fill="url(#gradient_6)" d="M571.759 525.195C574.297 524.012 575.528 527.359 576.99 528.15C578.207 532.111 581.231 540.486 581.512 544.255C582.853 562.282 581.655 580.876 581.408 598.908C581.301 606.707 580.622 614.785 582.717 622.188C582.828 620.787 583.11 614.877 583.526 614.071C585.323 617.388 582.007 620.636 581.721 623.151L581.589 622.824C579.718 620.362 580.333 618.818 579.072 617.119L578.083 617.603C578.46 615.853 578.589 613.352 578.605 611.518C578.822 586.778 579.905 561.574 576.925 536.978C576.42 532.816 574.178 528.521 571.759 525.195Z"/><path fill="#766747" d="M566.776 521.131C571.05 519.193 576.72 523.896 576.99 528.15C575.528 527.359 574.297 524.012 571.759 525.195C570.12 523.813 568.458 522.459 566.776 521.131Z"/><path fill="#715E40" d="M651.348 508.348C651.638 510.104 651.765 510.329 651.079 512.018C649.307 514.141 638.026 517.01 634.952 518.676C634.987 518.657 627.868 522.071 628.326 521.945C620.072 520.813 617.068 532.363 614.779 537.689C614.389 536.473 615.295 533.284 615.518 531.362C618.366 517.839 632.962 512.843 644.722 510.17C646.737 509.711 649.957 509.437 651.348 508.348Z"/><path fill="#715E40" d="M368.014 435.037C369.703 435.47 370.508 435.847 371.715 437.126C383.986 450.122 395.436 464.23 407.078 477.714L427.569 501.332C431.891 506.378 438.504 513.124 440.503 519.396C442.133 524.818 443.343 536.697 444.063 542.853C446.559 564.214 452.084 583.864 462.762 602.668C464.253 605.343 470.632 615.866 473.046 617.41C488.379 637.757 510.841 651.424 535.459 657.415C537.733 658.642 545.001 659.894 547.805 660.27C568.844 662.938 590.215 660.8 610.309 654.016C611.826 654.547 611.726 654.555 612.924 655.662L613.248 658.594C594.097 667.298 570.921 667.775 550.407 665.528C528.414 663.119 506.695 654.893 489.601 640.857C485.963 637.87 481.289 634.401 478.374 630.686C472.52 625.401 462.49 612.35 458.786 605.168C457.876 604.162 455.791 599.886 455.078 598.529C444.073 577.554 440.718 553.55 437.483 530.395C436.369 522.42 435.641 517.404 430.346 510.953C422.663 501.591 414.626 492.477 406.724 483.296C396.273 471.156 386.312 458.498 374.697 447.444C373.831 446.627 373.497 446.447 372.717 445.416C372.651 444.32 369.329 439.48 368.441 438.243C368.084 437.746 366.823 437.896 365.997 437.869C365.787 437.807 365.084 437.369 364.862 437.239C365.271 436.081 366.55 435.811 368.014 435.037Z"/><path fill="#766747" d="M458.786 605.168L459.995 604.891C463.805 608.957 466.325 614.167 469.257 618.89C471.168 621.968 478.244 627.612 478.374 630.686C472.52 625.401 462.49 612.35 458.786 605.168Z"/><defs><linearGradient id="gradient_7" gradientUnits="userSpaceOnUse" x1="508.19315" y1="579.63208" x2="489.0455" y2="600.86487"><stop offset="0" stop-color="#5A3D14"/><stop offset="1" stop-color="#88734B"/></linearGradient></defs><path fill="url(#gradient_7)" d="M446.756 531.05C446.526 529.015 446.289 525.609 447.779 524.049C455.007 533.148 463.103 542.419 470.67 551.276C474.051 555.234 480.623 563.168 484.283 566.585C487.415 569.855 489.986 572.819 492.905 576.251C494.638 578.299 498.692 583.246 500.671 584.559C507.148 590.575 516.127 601.209 522.421 608.051C533.388 621.454 547.771 634.504 558.402 648.297L558.23 649.028C555.532 649.732 556.409 647.91 554.167 649.071C552.189 646.681 550.164 644.33 548.092 642.02C537.665 630.272 526.506 618.749 515.792 607.242C510.506 601.564 505.427 595.463 499.505 590.488C497.921 589.158 496.646 589.074 494.662 588.954C494.55 587.74 494.726 586.818 494.876 585.617C494.138 584.062 494.433 584.571 492.755 583.526L491.555 584.192L491.207 584.499C490.496 585.348 490.894 585.222 490.099 585.301C488.766 582.668 488.315 581.836 486.196 579.698C487.051 584.15 488.902 587.787 490.027 591.988C491.864 598.844 493.422 603.698 496.587 610.088L496.297 610.069C491.572 603.55 487.991 596.275 485.706 588.556C485.517 586.395 482.383 573.585 481.214 572.358C470.144 560.743 461.018 547.588 450.137 535.8C448.925 534.488 448.008 532.557 446.756 531.05Z"/><path fill="#A89367" d="M482.528 569.534C485.059 571.912 492.605 580.633 492.755 583.526L491.555 584.192L491.207 584.499C490.496 585.348 490.894 585.222 490.099 585.301C488.766 582.668 488.315 581.836 486.196 579.698C484.797 576.16 483.7 573.152 482.528 569.534Z"/><defs><linearGradient id="gradient_8" gradientUnits="userSpaceOnUse" x1="465.97699" y1="551.78497" x2="459.69241" y2="558.61786"><stop offset="0" stop-color="#7E5D26"/><stop offset="1" stop-color="#957437"/></linearGradient></defs><path fill="url(#gradient_8)" d="M444.978 531.386L446.756 531.05C448.008 532.557 448.925 534.488 450.137 535.8C461.018 547.588 470.144 560.743 481.214 572.358C482.383 573.585 485.517 586.395 485.706 588.556C483.591 586.175 482.661 577.598 481.012 573.964C479.781 571.249 474.129 570.448 471.612 568.791C466.038 565.122 459.099 557.213 454.064 552.461C451.456 548.24 449.169 543.346 446.887 538.989C445.541 536.418 446.202 533.726 444.978 531.386Z"/><path fill="#CBBA8E" d="M473.046 617.41C475.692 618.263 474.177 619.048 475.977 619.696C476.066 618.691 476.06 618.665 475.902 617.667C479.212 616.953 485.12 623.346 487.754 625.218C493.703 629.448 499.408 634.008 505.166 638.488C508.85 641.319 517.408 645.09 520.493 648.026L520.254 648.422C515.425 646.676 510.406 642.541 505.271 641.541L504.524 641.904L504.579 644.201C511.214 648.194 518.237 651.503 525.54 654.076C527.775 654.846 534.26 656.29 535.633 657.117L535.459 657.415C510.841 651.424 488.379 637.757 473.046 617.41Z"/><path fill="#766747" d="M615.518 531.362C615.295 533.284 614.389 536.473 614.779 537.689C612.919 546.066 612.808 568.861 612.862 578.234L613.032 628.23C613.049 636.301 613.397 647.785 612.924 655.662C611.726 654.555 611.826 654.547 610.309 654.016L610.872 653.929C612.029 652.369 611.472 637.376 611.485 634.019C611.607 617.977 611.573 601.935 611.384 585.893C611.282 576.519 611.817 566.326 611.581 557.417C612.127 549.381 612.656 538.762 615.518 531.362Z"/><path fill="#CBBA8E" d="M500.671 584.559C501.374 582.925 501.709 582.115 502.631 580.614C504.293 579.648 503.641 579.908 505.896 580.149C509.833 583.367 513.556 589.587 518.461 592.813C522.883 595.721 524.504 598.553 523.615 604.073L523.268 604.117C522.924 601.554 523.336 599.372 521.426 597.611C518.008 594.462 513.934 589.685 510.279 586.983C509.813 586.637 509.336 586.306 508.847 585.993L508.305 586.108C506.539 589.176 508.656 592.064 510.807 594.347C514.934 598.725 519.029 603.46 523.263 607.706C522.791 608.139 523.071 608.02 522.421 608.051C516.127 601.209 507.148 590.575 500.671 584.559Z"/><path fill="#6A5633" d="M441.986 518.669L442.49 518.489C444.147 519.582 446.768 522.393 447.779 524.049C446.289 525.609 446.526 529.015 446.756 531.05L444.978 531.386L444.503 530.515C444.989 533.906 444.409 535.348 445.23 539.114C446.484 544.865 451.625 550.088 450.323 555.766L449.91 555.964C448.168 548.379 444.274 542.083 443.384 534.227C442.79 528.995 441.068 524.052 441.986 518.669Z"/><path fill="#CBBA8E" d="M507.552 546.336C507.072 545.365 505.412 544.236 505.003 543.414C501.244 535.853 493.761 529.659 489.957 522.301L490.281 521.609C498.557 533.304 507.003 542.498 516.53 553.122C519.431 556.357 527.743 565.204 530.06 568.592C529.342 568.581 528.867 568.495 528.296 567.868C523.515 562.625 518.984 556.542 513.791 551.747C512.914 551.908 513.317 551.809 512.335 552.121L511.585 552.364C509.91 551.888 510.634 552.334 509.489 550.764L510.068 549.858C511.052 549.984 510.729 549.976 511.702 549.82C511.273 548.021 509.085 547.055 507.552 546.336Z"/><path fill="#766747" d="M545.808 586.911C554.682 596.309 564.18 608.669 574.477 616.342C573.439 617.403 573.523 617.419 572.179 617.993C568.948 617.553 560.094 607.102 557.64 604.189L558.01 604.128C561.017 606.278 565.733 611.765 568.84 614.666C569.134 610.947 546.526 592.759 545.808 586.911Z"/><path fill="#CBBA8E" d="M544.528 650.182C547.618 651.021 551.018 652.027 554.133 652.612C555.023 653.036 554.822 652.904 555.859 653.019L556.635 651.371L557.434 651.154C560.056 652.211 562.395 654.512 564.614 656.387C557.755 656.101 547.794 655.488 541.482 652.97L542.505 652.716C544.974 653.613 553.597 655.206 556.1 654.903C555.537 654.407 547.268 652.107 544.428 650.759L544.528 650.182Z"/><path fill="#715E40" d="M491.555 584.192L492.755 583.526C494.433 584.571 494.138 584.062 494.876 585.617C494.726 586.818 494.55 587.74 494.662 588.954L494.235 590.17C494.316 592.928 494.625 594.432 495.556 597.071L493.745 596.292C491.239 593.106 491.182 588.416 491.207 584.499L491.555 584.192Z"/><path fill="#6A5633" d="M491.555 584.192L492.755 583.526C494.433 584.571 494.138 584.062 494.876 585.617C494.726 586.818 494.55 587.74 494.662 588.954L494.235 590.17C492.469 588.172 493.264 587.241 491.555 584.192Z"/><path fill="#CBBA8E" d="M578.083 617.603L579.072 617.119C580.333 618.818 579.718 620.362 581.589 622.824C579.511 623.456 577.658 624.131 576.416 622.076C576.347 620.437 577.081 619.686 577.99 618.285L578.083 617.603Z"/><defs><linearGradient id="gradient_9" gradientUnits="userSpaceOnUse" x1="605.16229" y1="383.23087" x2="586.63385" y2="440.03494"><stop offset="0" stop-color="#907C4D"/><stop offset="1" stop-color="#AB976C"/></linearGradient></defs><path fill="url(#gradient_9)" d="M470.873 425.964C472.946 422.946 477.146 418.539 479.76 415.956C505.794 390.226 543.471 381.22 579.095 384.629C591.797 385.845 604.653 388.822 617.233 389.85C619.5 390.035 626.841 389.01 630.581 389.074C632.827 389.94 633.639 390.223 635.22 392.136C636.881 397.337 637.65 451.203 636.397 457.573C634.393 461.069 631.224 462.75 628.451 458.696C626.415 455.048 624.691 450.072 623.235 446.116C613.121 418.632 596.209 406.543 567.719 402.462C552.94 401.967 544.077 403.274 530.589 409.981C526.104 413.342 519.942 418.002 516.271 422.239C499.895 441.14 491.193 468.73 487.289 493.171C485.967 501.449 485.69 509.394 488.287 517.331C485.335 516.135 484.508 513.284 483.136 510.348C478.075 488.317 485.287 476.224 491.141 455.296C489.806 455.062 491.695 454.758 489.494 452.23C488.079 454.487 487.744 454.538 486.896 457.112L486.54 457.76C485.203 460.153 484.835 460.851 484.3 463.562C484.064 463.318 483.82 463.079 483.601 462.819C479.213 457.603 463.324 455.28 456.451 451.943C455.809 453.334 455.279 454.369 454.54 455.711L453.846 455.747C456.619 447.65 465.621 432.567 470.873 425.964Z"/><path fill="#CBBA8E" d="M470.873 425.964C472.946 422.946 477.146 418.539 479.76 415.956C505.794 390.226 543.471 381.22 579.095 384.629C591.797 385.845 604.653 388.822 617.233 389.85C619.5 390.035 626.841 389.01 630.581 389.074C632.827 389.94 633.639 390.223 635.22 392.136C633.557 393.863 634.093 393.652 631.119 393.924C628.655 394.491 627.256 394.791 624.707 395.077C612.215 397.436 591.311 390.02 578.159 389.521C573.028 389.327 552.805 390.101 548.637 392.216L549.021 392.564C545.327 395.245 541.67 393.832 537.955 395.796C537.781 395.888 536.708 396.15 536.425 396.222C536.575 396.284 557.215 392.441 560.423 394.203C561.647 394.875 569.53 395.767 571.338 396.471C574.448 396.954 574.8 395.709 577.367 396.743C578.391 397.775 578.152 397.351 578.746 398.609C577.251 397.868 569.298 396.567 567.604 397.261C525.325 395.927 506.037 417.683 491.141 455.296C489.806 455.062 491.695 454.758 489.494 452.23C488.079 454.487 487.744 454.538 486.896 457.112L486.54 457.76C485.203 460.153 484.835 460.851 484.3 463.562C484.064 463.318 483.82 463.079 483.601 462.819C479.213 457.603 463.324 455.28 456.451 451.943C455.809 453.334 455.279 454.369 454.54 455.711L453.846 455.747C456.619 447.65 465.621 432.567 470.873 425.964Z"/><defs><linearGradient id="gradient_10" gradientUnits="userSpaceOnUse" x1="469.95499" y1="458.23456" x2="480.15964" y2="429.64532"><stop offset="0" stop-color="#9D834E"/><stop offset="1" stop-color="#CAB885"/></linearGradient></defs><path fill="url(#gradient_10)" d="M470.873 425.964L470.616 427.905C474.896 432.061 484.017 430.678 489.494 432.756C490.164 433.01 492.342 435.09 492.999 435.736C493.305 433.647 492.948 433.916 494.1 432.53C494.673 437.299 489.781 448.153 489.494 452.23C488.079 454.487 487.744 454.538 486.896 457.112L486.54 457.76C485.203 460.153 484.835 460.851 484.3 463.562C484.064 463.318 483.82 463.079 483.601 462.819C479.213 457.603 463.324 455.28 456.451 451.943C455.809 453.334 455.279 454.369 454.54 455.711L453.846 455.747C456.619 447.65 465.621 432.567 470.873 425.964Z"/><path fill="#B0A48A" d="M548.637 392.216C542.514 393.526 538.05 394.544 531.961 396.556C529.219 397.461 524.816 400.161 523.31 400.312C554.433 376.689 590.067 392.878 624.707 395.077C612.215 397.436 591.311 390.02 578.159 389.521C573.028 389.327 552.805 390.101 548.637 392.216Z"/><path fill="#968152" d="M630.581 389.074C632.827 389.94 633.639 390.223 635.22 392.136C633.557 393.863 634.093 393.652 631.119 393.924L630.581 389.074Z"/><path fill="#715E40" d="M491.141 455.296C506.037 417.683 525.325 395.927 567.604 397.261C572.582 398.293 577.6 398.748 582.604 400.303C599.741 405.626 608.955 412.64 618.951 427.034C625.469 436.418 627.366 449.025 632.498 455.755C633.877 456.307 635.177 456.733 636.397 457.573C634.393 461.069 631.224 462.75 628.451 458.696C626.415 455.048 624.691 450.072 623.235 446.116C613.121 418.632 596.209 406.543 567.719 402.462C552.94 401.967 544.077 403.274 530.589 409.981C526.104 413.342 519.942 418.002 516.271 422.239C499.895 441.14 491.193 468.73 487.289 493.171C485.967 501.449 485.69 509.394 488.287 517.331C485.335 516.135 484.508 513.284 483.136 510.348C478.075 488.317 485.287 476.224 491.141 455.296Z"/><path fill="#766747" d="M530.589 409.981C531.985 403.141 556.037 399.946 562.732 400.855L559.848 400.887C563.464 401.016 567.103 401.764 570.828 402.06L570.421 402.246L570.272 402.016C569.21 402.621 569.12 402.428 567.719 402.462C552.94 401.967 544.077 403.274 530.589 409.981Z"/><path fill="#6A5633" d="M632.498 455.755C633.877 456.307 635.177 456.733 636.397 457.573C634.393 461.069 631.224 462.75 628.451 458.696C629.683 456.284 629.961 456.418 632.498 455.755Z"/><defs><linearGradient id="gradient_11" gradientUnits="userSpaceOnUse" x1="308.40656" y1="525.91766" x2="435.50461" y2="586.78833"><stop offset="0" stop-color="#AEA06D"/><stop offset="1" stop-color="#E9D6B3"/></linearGradient></defs><path fill="url(#gradient_11)" d="M339.271 397.385C346.565 403.592 349.985 407.55 353.236 416.755C353.562 417.678 355.175 422.968 355.301 423.187C361.623 426.434 359.114 444.695 359.591 450.641C360.468 464.169 358.137 475.509 362.071 488.962C362.732 475.863 361.109 461.134 362.254 448.194C361.365 443.487 361 434.407 368.014 435.037C366.55 435.811 365.271 436.081 364.862 437.239C365.084 437.369 365.787 437.807 365.997 437.869C366.823 437.896 368.084 437.746 368.441 438.243C369.329 439.48 372.651 444.32 372.717 445.416C370.757 445.814 371.013 445.466 369.716 446.616C368.45 450.258 368.637 467.628 368.58 472.528C368.31 490.225 368.225 507.925 368.325 525.624C368.248 558.316 365.76 593.468 372.087 625.701C373.833 634.595 380.146 643.629 388.047 648.234C394.391 651.109 404.386 652.513 408.298 655.961C408.376 657.372 408.45 659.05 407.476 660.239C403.654 662.798 389.624 662.095 384.389 662.211C367.897 662.615 351.397 662.642 334.904 662.293C329.617 662.159 321.698 662.289 316.685 661.263L315.561 660.866C314.343 659.53 314.23 657.891 313.864 656.091C317.931 650.224 330.374 649.035 337.852 645.449C343.092 641.553 345.834 636.98 346.95 630.521C351.048 606.803 351.195 583.941 351.23 559.962L351.32 501.182L351.364 457.619C351.351 447.845 351.587 436.933 350.549 427.299C349.799 423.106 348.557 419.319 347.175 415.305C347.799 414.589 347.511 414.842 348.502 414.5C348.258 412.722 348.107 413.581 349.278 411.9C348.633 408.536 342.808 403.185 340.413 400.647C339.005 399.156 339.194 398.97 339.271 397.385Z"/><defs><linearGradient id="gradient_12" gradientUnits="userSpaceOnUse" x1="359.02454" y1="540.6806" x2="389.20529" y2="543.06647"><stop offset="0" stop-color="#8D8269"/><stop offset="1" stop-color="#BA9F76"/></linearGradient></defs><path fill="url(#gradient_12)" d="M362.254 448.194C361.365 443.487 361 434.407 368.014 435.037C366.55 435.811 365.271 436.081 364.862 437.239C365.084 437.369 365.787 437.807 365.997 437.869C366.823 437.896 368.084 437.746 368.441 438.243C369.329 439.48 372.651 444.32 372.717 445.416C370.757 445.814 371.013 445.466 369.716 446.616C368.45 450.258 368.637 467.628 368.58 472.528C368.31 490.225 368.225 507.925 368.325 525.624C368.248 558.316 365.76 593.468 372.087 625.701C373.833 634.595 380.146 643.629 388.047 648.234C383.895 648.917 380.292 646.465 376.695 644.487C364.061 632.235 361.082 594.52 362.752 577.277L362.627 503.261C362.648 496.804 363.655 452.149 362.254 448.194Z"/><path fill="#766747" d="M362.254 448.194C361.365 443.487 361 434.407 368.014 435.037C366.55 435.811 365.271 436.081 364.862 437.239C365.084 437.369 365.787 437.807 365.997 437.869C366.182 439.459 365.596 452.784 365.539 455.542L364.717 499.824L364.257 554.873C364.161 561.236 364.179 567.721 364.046 574.094C364.022 575.237 363.351 576.34 362.752 577.277L362.627 503.261C362.648 496.804 363.655 452.149 362.254 448.194Z"/><defs><linearGradient id="gradient_13" gradientUnits="userSpaceOnUse" x1="337.52301" y1="535.49915" x2="362.12201" y2="538.60284"><stop offset="0" stop-color="#9E8C6D"/><stop offset="1" stop-color="#AEA892"/></linearGradient></defs><path fill="url(#gradient_13)" d="M349.278 411.9C350.584 415.157 353.387 421.736 353.584 424.912C354.46 438.982 354.213 453.651 354.327 467.712C354.54 492.217 354.607 516.722 354.527 541.228C354.559 555.158 354.375 569.399 354.959 583.277C354.932 588.837 354.994 601.517 354.06 606.908C353.041 611.195 347.542 635.261 349.56 637.551C346.831 644.036 342.77 644.676 340.04 648.546C338.738 647.15 339.422 646.634 337.852 645.449C343.092 641.553 345.834 636.98 346.95 630.521C351.048 606.803 351.195 583.941 351.23 559.962L351.32 501.182L351.364 457.619C351.351 447.845 351.587 436.933 350.549 427.299C349.799 423.106 348.557 419.319 347.175 415.305C347.799 414.589 347.511 414.842 348.502 414.5C348.258 412.722 348.107 413.581 349.278 411.9Z"/><path fill="#B0A48A" d="M347.175 415.305C347.799 414.589 347.511 414.842 348.502 414.5C350.699 417.268 353.811 424.398 350.549 427.299C349.799 423.106 348.557 419.319 347.175 415.305Z"/><path fill="#766747" d="M408.298 655.961C408.376 657.372 408.45 659.05 407.476 660.239C403.654 662.798 389.624 662.095 384.389 662.211C367.897 662.615 351.397 662.642 334.904 662.293C329.617 662.159 321.698 662.289 316.685 661.263L315.561 660.866C314.343 659.53 314.23 657.891 313.864 656.091C320.427 656.809 323.652 657.393 330.327 657.223C343.784 657.388 359.394 657.729 372.763 657.248C377.698 657.571 405.982 657.893 408.298 655.961Z"/><path fill="#B0A48A" d="M316.685 661.263C319.759 659.536 402.872 658.737 407.476 660.239C403.654 662.798 389.624 662.095 384.389 662.211C367.897 662.615 351.397 662.642 334.904 662.293C329.617 662.159 321.698 662.289 316.685 661.263Z"/><defs><linearGradient id="gradient_14" gradientUnits="userSpaceOnUse" x1="314.28381" y1="483.93549" x2="380.47141" y2="502.96689"><stop offset="0" stop-color="#78613A"/><stop offset="1" stop-color="#857C62"/></linearGradient></defs><path fill="url(#gradient_14)" d="M339.271 397.385C346.565 403.592 349.985 407.55 353.236 416.755C353.562 417.678 355.175 422.968 355.301 423.187C357.13 433.101 356.847 446.715 356.861 457.061L356.772 501.886L356.803 557.609C356.78 567.786 356.989 579.638 356.319 589.696C355.42 588.411 355.453 585.451 354.959 583.277C354.375 569.399 354.559 555.158 354.527 541.228C354.607 516.722 354.54 492.217 354.327 467.712C354.213 453.651 354.46 438.982 353.584 424.912C353.387 421.736 350.584 415.157 349.278 411.9C348.633 408.536 342.808 403.185 340.413 400.647C339.005 399.156 339.194 398.97 339.271 397.385Z"/><path fill="#B0A48A" d="M337.852 645.449C339.422 646.634 338.738 647.15 340.04 648.546L340.93 648.886L340.011 649.714C340.484 650.412 340.578 650.542 340.84 651.364C338.524 653.104 329.315 653.807 323.701 656.341C326.112 657.069 327.912 656.216 330.327 657.223C323.652 657.393 320.427 656.809 313.864 656.091C317.931 650.224 330.374 649.035 337.852 645.449Z"/><path fill="#B0A48A" d="M376.695 644.487C380.292 646.465 383.895 648.917 388.047 648.234C394.391 651.109 404.386 652.513 408.298 655.961C405.982 657.893 377.698 657.571 372.763 657.248C377.976 656.378 386.802 656.899 392.185 656.752C395.854 656.651 398.564 656.239 402.103 655.999C400.1 655.756 395.983 655.408 394.15 654.964C389.149 653.752 379.377 648.859 376.695 644.487Z"/><path fill="#A89367" d="M349.56 637.551C347.542 635.261 353.041 611.195 354.06 606.908C354.309 610.689 353.273 616.937 354.274 619.637C354.172 625.1 351.797 632.542 349.56 637.551Z"/><path fill="#968152" d="M354.959 583.277C355.453 585.451 355.42 588.411 356.319 589.696C356.677 594.976 355.261 614.556 354.274 619.637C353.273 616.937 354.309 610.689 354.06 606.908C354.994 601.517 354.932 588.837 354.959 583.277Z"/><defs><linearGradient id="gradient_15" gradientUnits="userSpaceOnUse" x1="634.83173" y1="587.79938" x2="601.84802" y2="593.96118"><stop offset="0" stop-color="#BDA88A" stop-opacity="0.98823529"/><stop offset="1" stop-color="#928969"/></linearGradient></defs><path fill="url(#gradient_15)" d="M614.779 537.689C617.068 532.363 620.072 520.813 628.326 521.945C620.818 528.981 619.443 536.836 618.422 546.694C615.685 573.12 617.223 599.577 616.775 626.093C616.616 635.458 618.228 649.419 614.207 657.768C614.103 657.951 613.483 658.412 613.248 658.594L612.924 655.662C613.397 647.785 613.049 636.301 613.032 628.23L612.862 578.234C612.808 568.861 612.919 546.066 614.779 537.689Z"/></svg>